nColumns=19
nRows=101
DataType=double
version=3
OpenSimVersion=4.1
endheader
time	ground_force_1_vx	ground_force_1_vy	ground_force_1_vz	ground_force_1_px	ground_force_1_py	ground_force_1_pz	ground_force_1_mx	ground_force_1_my	ground_force_1_mz	ground_force_2_vx	ground_force_2_vy	ground_force_2_vz	ground_force_2_px	ground_force_2_py	ground_force_2_pz	ground_force_2_mx	ground_force_2_my	ground_force_2_mz
0.2	0	0	0	0	0	0	0	0	0	0	0	0	0	0	0	0	0	0
0.21	-13.1699	48.7537	-7.66997	1.13757	0	-0.277586	0	0.866466	0	0	0	0	0	0	0	0	0	0
0.22	-14.1798	130.432	-16.4859	1.13901	0	-0.283575	0	2.24016	0	0	0	0	0	0	0	0	0	0
0.23	-0.103652	281.799	-26.4494	1.12967	0	-0.289049	0	3.58657	0	0	0	0	0	0	0	0	0	0
0.24	16.5721	495.222	-33.3612	1.11819	0	-0.294134	0	4.49919	0	0	0	0	0	0	0	0	0	0
0.25	11.1488	711.939	-34.4232	1.11283	0	-0.297824	0	4.71179	0	0	0	0	0	0	0	0	0	0
0.26	-21.3552	860.221	-32.6463	1.11421	0	-0.300116	0	4.20251	0	0	0	0	0	0	0	0	0	0
0.27	-67.0538	946.968	-33.5043	1.11704	0	-0.302307	0	3.15808	0	0	0	0	0	0	0	0	0	0
0.28	-106.651	1034.97	-36.967	1.11644	0	-0.304434	0	1.85304	0	0	0	0	0	0	0	0	0	0
0.29	-128.572	1153.38	-38.9557	1.1104	0	-0.305575	0	0.556951	0	0	0	0	0	0	0	0	0	0
0.3	-133.872	1281.91	-38.8212	1.10043	0	-0.306064	0	-0.499558	0	0	0	0	0	0	0	0	0	0
0.31	-129.281	1390.73	-39.0789	1.08934	0	-0.306368	0	-1.14957	0	0	0	0	0	0	0	0	0	0
0.32	-120.792	1468.77	-40.724	1.07784	0	-0.306461	0	-1.32637	0	0	0	0	0	0	0	0	0	0
0.33	-108.978	1517.35	-42.7171	1.06544	0	-0.306369	0	-1.08237	0	0	0	0	0	0	0	0	0	0
0.34	-92.8583	1539.64	-44.2208	1.0523	0	-0.306309	0	-0.571238	0	0	0	0	0	0	0	0	0	0
0.35	-72.9633	1537.61	-44.9766	1.03893	0	-0.306427	0	-0.0042609	0	0	0	0	0	0	0	0	0	0
0.36	-51.3087	1511.61	-44.2652	1.02567	0	-0.306737	0	0.404043	0	0	0	0	0	0	0	0	0	0
0.37	-29.846	1461.75	-40.9951	1.0125	0	-0.307268	0	0.493333	0	0	0	0	0	0	0	0	0	0
0.38	-8.53945	1391.14	-34.7434	0.999247	0	-0.308128	0	0.205227	0	0	0	0	0	0	0	0	0	0
0.39	13.767	1304.4	-26.099	0.985473	0	-0.309349	0	-0.3978	0	0	0	0	0	0	0	0	0	0
0.4	35.6126	1203.95	-16.2609	0.971097	0	-0.31081	0	-1.15346	0	0	0	0	0	0	0	0	0	0
0.41	54.0774	1091.73	-6.56472	0.956669	0	-0.312427	0	-1.85389	0	0	0	0	0	0	0	0	0	0
0.42	68.2603	971.812	1.80953	0.942369	0	-0.314173	0	-2.3129	0	0	0	0	0	0	0	0	0	0
0.43	79.3415	849.62	8.01189	0.927543	0	-0.316065	0	-2.4225	0	0	0	0	0	0	0	0	0	0
0.44	87.3522	729.293	11.9817	0.912121	0	-0.318006	0	-2.17935	0	0	0	0	0	0	0	0	0	0
0.45	90.4657	614.207	14.3917	0.897139	0	-0.3197	0	-1.67256	0	0	0	0	0	0	0	0	0	0
0.46	88.0417	507.961	15.813	0.883204	0	-0.320997	0	-1.04209	0	0	0	0	0	0	0	0	0	0
0.47	81.4043	413.307	16.4734	0.870244	0	-0.321855	0	-0.429552	0	0	0	0	0	0	0	0	0	0
0.48	72.6921	331.001	16.5625	0.857905	0	-0.322171	0	0.060538	0	0	0	0	0	0	0	0	0	0
0.49	64.1755	260.456	16.1463	0.845626	0	-0.321824	0	0.381359	0	0	0	0	0	0	0	0	0	0
0.5	56.6336	200.884	15.1168	0.833444	0	-0.320977	0	0.545564	0	0	0	0	0	0	0	0	0	0
0.51	48.808	151.605	13.5677	0.822329	0	-0.319916	0	0.612475	0	0	0	0	0	0	0	0	0	0
0.52	39.7824	111.884	11.8383	0.814198	0	-0.317767	0	0.667884	0	0	0	0	0	0	0	0	0	0
0.53	29.9822	80.3279	10.0811	0.810008	0	-0.31326	0	0.799753	0	0	0	0	0	0	0	0	0	0
0.54	20.1489	55.4131	8.26354	0.808713	0	-0.305404	0	1.06875	0	0	0	0	0	0	0	0	0	0
0.55	10.9073	36.1338	6.47272	0.80942	0	-0.292216	0	1.47602	0	0	0	0	0	0	0	0	0	0
0.56	0	0	0	0	0	0	0	0	0	0	0	0	0	0	0	0	0	0
0.57	0	0	0	0	0	0	0	0	0	0	0	0	0	0	0	0	0	0
0.58	0	0	0	0	0	0	0	0	0	0	0	0	0	0	0	0	0	0
0.59	0	0	0	0	0	0	0	0	0	0	0	0	0	0	0	0	0	0
0.6	0	0	0	0	0	0	0	0	0	-0.819789	15.2588	2.07555	0.446231	0	-0.159962	0	-0.0295304	0
0.61	0	0	0	0	0	0	0	0	0	1.28937	94.2794	9.32834	1.1083	0	-0.401837	0	-1.38738	0
0.62	0	0	0	0	0	0	0	0	0	15.5649	249.592	18.7198	1.09885	0	-0.39979	0	-3.29252	0
0.63	0	0	0	0	0	0	0	0	0	28.385	500.699	30.6453	1.09436	0	-0.39379	0	-4.72494	0
0.64	0	0	0	0	0	0	0	0	0	13.3252	771.895	38.7235	1.09677	0	-0.386951	0	-5.18956	0
0.65	0	0	0	0	0	0	0	0	0	-26.3134	946.044	35.6456	1.10303	0	-0.383232	0	-4.56483	0
0.66	0	0	0	0	0	0	0	0	0	-69.2027	1008.69	23.2182	1.10692	0	-0.384621	0	-3.21558	0
0.67	0	0	0	0	0	0	0	0	0	-105.7	1055.37	13.8618	1.10421	0	-0.387396	0	-1.80307	0
0.68	0	0	0	0	0	0	0	0	0	-128.693	1152.03	15.5244	1.09474	0	-0.387262	0	-0.90424	0
0.69	0	0	0	0	0	0	0	0	0	-133.567	1279.08	23.1047	1.08163	0	-0.386237	0	-0.732988	0
0.7	0	0	0	0	0	0	0	0	0	-124.372	1389.2	29.4594	1.06826	0	-0.386741	0	-1.13784	0
0.71	0	0	0	0	0	0	0	0	0	-109.64	1461.41	34.1958	1.05513	0	-0.387867	0	-1.78395	0
0.72	0	0	0	0	0	0	0	0	0	-93.6152	1495.83	38.5071	1.04165	0	-0.388543	0	-2.33958	0
0.73	0	0	0	0	0	0	0	0	0	-78.3163	1497.21	41.273	1.02884	0	-0.389176	0	-2.58425	0
0.74	0	0	0	0	0	0	0	0	0	-62.8731	1474.3	42.2908	1.0168	0	-0.389943	0	-2.43447	0
0.75	0	0	0	0	0	0	0	0	0	-43.0244	1437.45	42.9603	1.00384	0	-0.390367	0	-1.9023	0
0.76	0	0	0	0	0	0	0	0	0	-19.7715	1389.06	43.4661	0.989715	0	-0.390324	0	-1.02941	0
0.77	0	0	0	0	0	0	0	0	0	1.96843	1326.58	42.0777	0.97571	0	-0.390033	0	0.146764	0
0.78	0	0	0	0	0	0	0	0	0	21.226	1249.73	37.1824	0.961921	0	-0.389516	0	1.5732	0
0.79	0	0	0	0	0	0	0	0	0	39.1926	1160.34	28.8782	0.947636	0	-0.388674	0	3.13995	0
0.8	0	0	0	0	0	0	0	0	0	54.4565	1061.67	18.8536	0.933285	0	-0.387556	0	4.66674	0
0.81	0	0	0	0	0	0	0	0	0	66.2857	958.592	9.33471	0.919392	0	-0.386205	0	5.93981	0
0.82	0	0	0	0	0	0	0	0	0	76.4365	855.732	1.88321	0.905157	0	-0.384595	0	6.77921	0
0.83	0	0	0	0	0	0	0	0	0	85.2527	755.038	-2.99822	0.889885	0	-0.382771	0	7.09687	0
0.84	0	0	0	0	0	0	0	0	0	89.8985	655.962	-5.53371	0.874601	0	-0.38117	0	6.9182	0
0.85	0	0	0	0	0	0	0	0	0	88.3611	559.436	-6.17796	0.860164	0	-0.380139	0	6.36365	0
0.86	0	0	0	0	0	0	0	0	0	82.2326	468.791	-5.3396	0.846252	0	-0.379455	0	5.6038	0
0.87	0	0	0	0	0	0	0	0	0	73.8209	386.603	-3.58358	0.832978	0	-0.378876	0	4.80637	0
0.88	0	0	0	0	0	0	0	0	0	64.7477	313.284	-1.69714	0.820797	0	-0.378584	0	4.09067	0
0.89	0	0	0	0	0	0	0	0	0	56.5785	248.477	-0.221934	0.809347	0	-0.378783	0	3.50242	0
0.9	0	0	0	0	0	0	0	0	0	49.3709	192.317	0.886062	0.798493	0	-0.378864	0	3.01746	0
0.91	0	0	0	0	0	0	0	0	0	42.0208	144.787	1.81122	0.788843	0	-0.377902	0	2.57265	0
0.92	0	0	0	0	0	0	0	0	0	33.5846	105.426	2.48882	0.78081	0	-0.375981	0	2.109	0
0.93	0	0	0	0	0	0	0	0	0	24.373	74.1036	2.93662	0.776518	0	-0.372403	0	1.6094	0
0.94	0	0	0	0	0	0	0	0	0	14.9865	50.6132	3.33227	0.784443	0	-0.364931	0	1.11913	0
0.95	0	0	0	0	0	0	0	0	0	5.30709	34.6142	3.58567	0.819476	0	-0.349731	0	0.740844	0
0.96	0	0	0	0	0	0	0	0	0	-0.134019	5.68891	0.700474	0.171633	0	-0.0669502	0	0.121612	0
0.97	-11.4429	22.9241	0.594272	0.707415	0	-0.195367	0	0.583021	0	0	0	0	0	0	0	0	0	0
0.98	-22.5675	59.0305	-2.83158	1.06724	0	-0.268691	0	1.2817	0	0	0	0	0	0	0	0	0	0
0.99	-19.789	132.655	-9.31934	1.08729	0	-0.271683	0	1.95693	0	0	0	0	0	0	0	0	0	0
1	-0.546817	274.939	-16.9797	1.07991	0	-0.277213	0	2.57134	0	0	0	0	0	0	0	0	0	0
1.01	18.063	484.858	-22.9409	1.06911	0	-0.281607	0	2.88715	0	0	0	0	0	0	0	0	0	0
1.02	10.4591	706.322	-25.1103	1.06553	0	-0.284445	0	2.79042	0	0	0	0	0	0	0	0	0	0
1.03	-23.6603	863.916	-25.6443	1.06821	0	-0.286008	0	2.35508	0	0	0	0	0	0	0	0	0	0
1.04	-64.6077	956.602	-29.0614	1.07072	0	-0.286956	0	1.78762	0	0	0	0	0	0	0	0	0	0
1.05	-93.6825	1042.91	-35.9992	1.06758	0	-0.287446	0	1.29656	0	0	0	0	0	0	0	0	0	0
1.06	-106.724	1153	-43.0471	1.05882	0	-0.287318	0	0.996328	0	0	0	0	0	0	0	0	0	0
1.07	-108.79	1269.33	-48.2156	1.04766	0	-0.287002	0	0.898408	0	0	0	0	0	0	0	0	0	0
1.08	-103.7	1365.82	-51.9262	1.03602	0	-0.286774	0	0.95296	0	0	0	0	0	0	0	0	0	0
1.09	-94.0783	1434.13	-54.3434	1.02389	0	-0.28654	0	1.09087	0	0	0	0	0	0	0	0	0	0
1.1	-80.6716	1475.07	-54.9714	1.0111	0	-0.286336	0	1.24974	0	0	0	0	0	0	0	0	0	0
1.11	-64.4571	1488.77	-53.8093	0.998081	0	-0.286295	0	1.38298	0	0	0	0	0	0	0	0	0	0
1.12	-46.6172	1476.14	-51.3248	0.98526	0	-0.286414	0	1.45431	0	0	0	0	0	0	0	0	0	0
1.13	-27.8805	1439.59	-47.6215	0.972695	0	-0.286663	0	1.42891	0	0	0	0	0	0	0	0	0	0
1.14	-8.41028	1383.26	-42.3773	0.960051	0	-0.287072	0	1.27539	0	0	0	0	0	0	0	0	0	0
1.15	12.9442	1312.9	-35.5208	0.946913	0	-0.287679	0	0.981099	0	0	0	0	0	0	0	0	0	0
1.16	35.4094	1231.14	-27.5154	0.933262	0	-0.288517	0	0.568997	0	0	0	0	0	0	0	0	0	0
1.17	55.3819	1137.23	-19.1917	0.919506	0	-0.289601	0	0.102528	0	0	0	0	0	0	0	0	0	0
1.18	71.307	1033.01	-11.4728	0.905964	0	-0.290967	0	-0.327277	0	0	0	0	0	0	0	0	0	0
1.19	83.3734	923.236	-5.08672	0.892531	0	-0.292491	0	-0.629007	0	0	0	0	0	0	0	0	0	0
1.2	91.8531	812.057	-0.581868	0.878664	0	-0.293962	0	-0.74232	0	0	0	0	0	0	0	0	0	0
